<?xml version="1.0" encoding="utf-8"?>
<!-- Generator: Adobe Illustrator 27.5.0, SVG Export Plug-In . SVG Version: 6.00 Build 0)  -->
<svg version="1.1" xmlns="http://www.w3.org/2000/svg" xmlns:xlink="http://www.w3.org/1999/xlink" x="0px" y="0px"
	 viewBox="0 0 750 500" style="enable-background:new 0 0 750 500;" xml:space="preserve">
<g id="BACKGROUND">
	<rect style="fill:#FFFFFF;" width="750" height="500"/>
</g>
<g id="OBJECTS">
	<g>
		<g>
			<path style="fill:#EBE9F4;" d="M699.155,430.267H68.056c-15.34-20.025-32.428-53.945-24.972-100.62
				c12.686-79.38,137.899-50.31,208.33-133.041c70.431-82.731,184.471-172.171,308.564-112.92
				c124.1,59.258,7.269,197.89,104.255,244.842C724.818,357.86,715.034,401.585,699.155,430.267z"/>
			<path style="fill:#EBE9F4;" d="M102.87,230.547c0,0,45.681,39.264,108.965-33.902c55.404-64.056,50.827-103.313,39.873-105.84
				c-10.954-2.527-20.143,35.987-57.995,75.069C155.862,204.956,84.977,203.965,102.87,230.547z"/>
		</g>
		<g>
			<g>
				<g>
					<polygon style="fill:#716DAA;" points="479.088,269.773 506.273,430.263 513.513,430.263 486.328,269.773 					"/>
					<polygon style="fill:#716DAA;" points="577.163,269.773 604.348,430.263 611.589,430.263 584.404,269.773 					"/>
					<polygon style="fill:#716DAA;" points="459.946,157.766 565.185,157.766 592.371,318.255 487.132,318.255 					"/>
					<polygon style="fill:#9893BC;" points="543.303,269.778 543.368,269.778 516.183,430.267 508.942,430.267 527.914,318.259 
						437.081,318.259 418.109,430.267 410.869,430.267 438.054,269.778 438.063,269.778 457.035,157.769 562.275,157.769 					"/>
					<polygon style="fill:#ADAAD6;" points="455.516,226.148 468.396,226.148 455.146,304.37 442.267,304.37 					"/>
					<polygon style="fill:#ADAAD6;" points="473.72,254.944 486.6,254.944 478.229,304.37 465.35,304.37 					"/>
					<polygon style="fill:#ADAAD6;" points="505.257,216.621 518.136,216.621 503.275,304.37 490.396,304.37 					"/>
					<polygon style="fill:#ADAAD6;" points="546.553,191.824 527.488,304.37 514.609,304.37 533.673,191.824 					"/>
					<rect x="454.892" y="151.066" style="fill:#716DAA;" width="113.289" height="6.7"/>
				</g>
				<g>
					<g>
						<g>
							<polygon style="fill:#22355D;" points="579.804,290.746 561.156,416.406 543.25,416.406 546.734,286.498 							"/>
							<path style="fill:#151328;" d="M563.208,427.475c-0.543,1.607-2.066,2.811-3.924,2.811H521.94
								c0.619-0.981,1.287-1.92,2.01-2.811c5.593-6.95,14.067-11.068,23.11-11.068h13.886l2.337,8.654
								C563.514,425.896,563.465,426.73,563.208,427.475z"/>
							<path style="fill:#262444;" d="M559.284,430.285H521.94c0.619-0.981,1.287-1.92,2.01-2.811h39.257
								C562.665,429.082,561.142,430.285,559.284,430.285z"/>
						</g>
						<g>
							<path style="fill:#2E4A79;" d="M600.896,416.406l-3.484-129.908l-32.497,4.175l-3.389-6.648l-15.644,5.036
								c0,0,2.853,6.72,8.252,8.69c3.154,1.151,8.076,2.026,11.625,2.555l17.229,116.101H600.896z"/>
							<path style="fill:#151328;" d="M580.801,427.475c0.543,1.607,2.066,2.811,3.931,2.811h37.337
								c-0.619-0.981-1.287-1.92-2.01-2.811c-5.586-6.95-14.067-11.068-23.111-11.068h-13.886l-2.337,8.654
								C580.495,425.896,580.544,426.73,580.801,427.475z"/>
							<path style="fill:#262444;" d="M580.801,427.475c0.543,1.607,2.066,2.811,3.931,2.811h37.337
								c-0.619-0.981-1.287-1.92-2.01-2.811H580.801z"/>
						</g>
					</g>
					<g>
						<g>
							<path style="fill:#F4AC96;" d="M519.203,215.512c0,0,1.705-2.17,1.085-8.743c-0.62-6.573-3.411-7.069-3.783-6.883
								c-0.372,0.186,0,6.883,0,6.883s-9.115-10.294-12.092-11.658c-2.976-1.364-0.868,3.255,2.512,7.627
								c0,0-6.201-5.178-8.898-5.798c-2.697-0.62,0.992,4.438,5.798,8.25c0,0-5.085-3.475-7.968-4.374
								c-2.883-0.899-0.465,2.93,5.348,7.767c0,0-3.674-2.372-5.255-2.604c-1.581-0.232-3.814-0.372,1.535,3.953
								c5.348,4.325,10.154,8.185,11.642,9.301C510.615,220.349,518.282,218.072,519.203,215.512z"/>
							<polygon style="fill:#F4AC96;" points="521.785,222.018 512.922,225.67 510.759,221.176 509.333,218.219 518.55,213.294 
								520.38,218.226 							"/>
							<path style="fill:none;stroke:#BE494F;stroke-linecap:round;stroke-miterlimit:10;" d="M512.404,214.3
								c0,0-0.328-3.518,2.439-6.191"/>
							<path style="fill:none;stroke:#BE494F;stroke-linecap:round;stroke-miterlimit:10;" d="M512.709,206.633
								c0,0-2.807,4.194-7.762,4.759"/>
							<path style="fill:#DF776C;" d="M521.785,222.018l-8.863,3.652l-2.164-4.494c2.998-0.939,7.868-2.456,9.621-2.95
								L521.785,222.018z"/>
						</g>
						<path style="fill:#578EBC;" d="M570.023,219.256l-26.916,46.2c-0.522,0.897-1.294,1.857-2.212,2.783
							c-3.979,4.049-10.637,4.098-14.345-0.209c-0.598-0.696-1.085-1.475-1.391-2.33l-11.715-32.509l-3.597-9.99l12.501-5.127
							l1.857,3.965l10.456,22.317l12.759-21.851c3.896-6.755,12.529-9.065,19.277-5.169L570.023,219.256z"/>
						<g>
							<path style="fill:#DF776C;" d="M558.94,190.857c-0.656,2.032-3.481,2.94-6.311,2.026c-2.829-0.913-4.591-3.301-3.935-5.333
								c0.656-2.032,3.482-2.94,6.311-2.026C557.834,186.437,559.596,188.825,558.94,190.857z"/>
							<path style="fill:#2C2460;" d="M551.517,177.075c0,0-0.367,7.889,1.788,12.639c2.155,4.749,1.059-14.054,1.354-14.964
								C554.955,173.84,551.517,177.075,551.517,177.075z"/>
							<path style="fill:#F4AC96;" d="M559.2,225.879c6.216,4.626,26.534-5.691,26.534-5.691s-2.729-1.814-4.656-8.188
								c-0.697-2.309-0.892-4.896-0.847-7.25c0.068-4.124,0.847-7.535,0.847-7.535s-17.327-0.907-17.635,5.691
								c-0.128,2.729-0.562,4.949-1.027,6.613c-0.667,2.369-1.395,3.621-1.395,3.621l-5.701,4.893
								C555.321,218.033,552.985,221.253,559.2,225.879z"/>
							<path style="fill:#DF776C;" d="M562.417,209.519c9.162,1.372,15.168-2.489,17.815-4.768c0.068-4.124,0.847-7.535,0.847-7.535
								s-17.327-0.907-17.635,5.691C563.317,205.635,562.882,207.854,562.417,209.519z"/>
							<path style="fill:#F4AC96;" d="M553.239,187.108c0,0.247,0,0.495,0.008,0.742v0.007c0,0.285,0.007,0.562,0.015,0.847
								c0.337,9.897,3.629,18.339,12.206,17.912c13.803-0.682,19.217-9.087,18.879-18.984c-0.12-3.464-1.462-6.673-3.524-9.365
								c-0.525-0.697-1.11-1.365-1.74-1.995c-3.816-3.824-9.125-6.178-13.916-6.013c-2.452,0.082-4.499,0.817-6.163,2.054
								c-3.839,2.834-5.676,8.307-5.758,14.65C553.246,187.011,553.239,187.063,553.239,187.108z"/>
							<path style="fill:#DF776C;" d="M553.246,186.966c0.157-2.347,1.44-4.431,1.44-4.431c11.351,2.227,20.386-1.897,20.386-1.897
								c0.075,0.585,1.792,2.632,3.486,3.966c1.694,1.342,2.827,3.839,2.827,3.839s1.267-3.179,1.267-3.681
								c0-0.36-1.147-4.229-1.829-6.493c-0.525-0.697-1.11-1.365-1.74-1.995c-3.516-0.975-13.698-3.681-20.079-3.959
								C555.166,175.15,553.329,180.623,553.246,186.966z"/>
							<path style="fill:#2C2460;" d="M547.705,174.91c0.697,1.957,2.084,3.711,4.116,4.694c5.458,2.624,20.521,1.417,23.753-1.012
								c0,0,0.51,1.514,3.239,4.349c2.729,2.827,3.134,8.285,2.729,9.499c-0.405,1.215,5.563,0,5.563,0s7.258-20.319-6.028-24.765
								c0,0,0.262-6.373-9.95-7.28s-14.583,4.596-18.294,4.851C547.795,165.59,546.176,170.711,547.705,174.91z"/>
							<path style="fill:none;stroke:#BE494F;stroke-linecap:round;stroke-miterlimit:10;" d="M561.539,191.228
								c0,0-1.049,2.224-0.442,4.751"/>
							<path style="fill:none;stroke:#2C2460;stroke-linecap:round;stroke-miterlimit:10;" d="M558.255,185.56
								c0,0-2.383-1.893-4.766,0.238"/>
							<path style="fill:none;stroke:#2C2460;stroke-linecap:round;stroke-miterlimit:10;" d="M570.501,185.56
								c0,0-2.383-1.893-4.766,0.238"/>
							<path style="fill:#BE494F;" d="M562.383,199.41l8.604-2.73c0,0,0.721,3.637-3.341,4.951
								C563.585,202.946,562.383,199.41,562.383,199.41z"/>
							<path style="fill:#403A87;" d="M547.705,174.91c-0.547-3.171,1.627-7.565,6.62-7.715c5.001-0.15,10.609-5.308,17.425-4.476
								c6.808,0.832,9.327,4.956,9.327,4.956s0.262-6.373-9.95-7.28s-14.583,4.596-18.294,4.851
								C547.795,165.59,546.176,170.711,547.705,174.91z"/>
							<path style="fill:#2C2460;" d="M566.362,189.204c0,0.74,0.296,1.34,0.661,1.34c0.365,0,0.661-0.6,0.661-1.34
								c0-0.74-0.296-1.339-0.661-1.339C566.658,187.864,566.362,188.464,566.362,189.204z"/>
							<path style="fill:#2C2460;" d="M554.659,189.204c0,0.74,0.296,1.34,0.661,1.34c0.365,0,0.661-0.6,0.661-1.34
								c0-0.74-0.296-1.339-0.661-1.339C554.956,187.864,554.659,188.464,554.659,189.204z"/>
							<path style="fill:#F4AC96;" d="M579.78,195.586c0.656,2.032,3.481,2.939,6.311,2.026c2.829-0.913,4.591-3.301,3.935-5.333
								c-0.656-2.032-3.481-2.939-6.311-2.026C580.886,191.165,579.125,193.553,579.78,195.586z"/>
						</g>
						<polygon style="fill:#84BFEF;" points="524.206,222.038 512.317,234.358 509.847,223.2 522.349,218.073 						"/>
						<g>
							<path style="fill:#6EA0D3;" d="M598.985,285.31c0,2.504-1.697,4.696-4.118,5.336c-21.086,5.642-39.793,1.704-46.958-0.292
								c-1.83-0.501-3.061-2.198-2.984-4.091l0.118-3.096l0.696-17.921l1.419-36.307c0.216-6.025,4.418-11.917,10.24-13.482
								l1.983-0.897l4.745,6.4l1.614,2.171l2.727-1.976l12.62-9.148l10.985,4.995c2.998,1.364,4.953,4.306,5.058,7.597l0.911,29.719
								l0.097,3.27L598.985,285.31z"/>
							<path style="fill:#5E9DD1;" d="M598.985,285.31c0,2.504-1.697,4.696-4.118,5.336c-21.086,5.642-39.793,1.704-46.958-0.292
								c-1.83-0.501-3.061-2.198-2.984-4.091l0.118-3.096l0.696-17.921c4.007,4.64,10.72,8.028,21.956,5.378
								c25.65-6.052,23.876-25.462,23.876-25.462s2.852,4.028,6.47,9.155l0.097,3.27L598.985,285.31z"/>
							<path style="fill:#356E9E;" d="M567.694,270.625l-3.401,4.273c-0.905,1.137-2.678,0.979-3.367-0.301l-2.206-4.098
								c-0.91-1.691-1.264-3.625-1.012-5.529l5.032-37.949l2.174-0.165l2.632,0.405l2.118,37.158
								C569.794,266.659,569.092,268.868,567.694,270.625z"/>
							<polygon style="fill:#356E9E;" points="571.235,223.016 567.548,227.26 562.742,227.02 561.732,223.673 561.527,222.259 
								564.121,220.955 565.733,223.129 568.463,221.15 							"/>
							<path style="fill:#84BFEF;" d="M565.735,223.128c0,0,4.236,0.342,7.421,4.891l11.206-14.526c0,0-1.046-2.155-3.375-1.814
								L565.735,223.128z"/>
							<path style="fill:#84BFEF;" d="M565.735,223.128c0,0-4.142-0.113-5.583,4.133l-2.833-12.152c0,0,1.274-2.114,3.001-1.312
								L565.735,223.128z"/>
						</g>
						<g>
							<g>
								<path style="fill:#F4AC96;" d="M576.625,279.58l-2.382,2.28c0,0-7.507-3.78-10.284-3.602c0,0-5.206,1.124-6.431,3.534
									c-1.225,2.409-0.89,5.193,1.433,5.375c0,0,0.289,2.341,2.88,2.093c0,0,0.221,3.044,3.281,1.784c0,0,0.075,1.87,2.311,1.86
									c2.236-0.009,3.472-1.883,3.472-1.883s2.915,1.575,6.461-1.423l4.331-2.896L576.625,279.58z"/>
								<path style="fill:none;stroke:#BE494F;stroke-linecap:round;stroke-miterlimit:10;" d="M559.09,286.701
									c0,0,1.447-3.572,5.528-5.354"/>
								<path style="fill:none;stroke:#BE494F;stroke-linecap:round;stroke-miterlimit:10;" d="M561.854,288.882
									c0,0,1.832-3.455,5.303-4.768"/>
								<path style="fill:none;stroke:#BE494F;stroke-linecap:round;stroke-miterlimit:10;" d="M565.398,290.582
									c0,0,1.477-2.494,4.338-3.62"/>
								<path style="fill:none;stroke:#BE494F;stroke-linecap:round;stroke-miterlimit:10;" d="M570.125,289.06
									c0,0-0.095,0.842,0.644,1.686"/>
								<path style="fill:none;stroke:#BE494F;stroke-linecap:round;stroke-miterlimit:10;" d="M568.972,290.395
									c0,0,0.681,0.218,1.397-0.243"/>
							</g>
							<path style="fill:#578EBC;" d="M608.493,271.23l-19.618,12.794l-6.734,4.39l-6.957-9.948l2.56-2.254l15.82-13.934
								l-7.868-28.78c-1.085-5.016,0.529-14.992,5.544-16.077c0,0,6.435-0.96,12.202,11.799l4.925,20.022l3.284,13.329
								C612.458,265.831,611.206,269.254,608.493,271.23z"/>
							<polygon style="fill:#84BFEF;" points="590.055,284.852 582.14,288.413 575.184,278.465 579.097,275.019 							"/>
						</g>
					</g>
				</g>
			</g>
			<g>
				<g>
					<g>
						<path style="fill:#3B9382;" d="M662.684,371.848c0,0-11.405-28.783-5.431-65.169c5.974-36.386,27.697-49.963,27.697-49.963
							s7.603,34.214-2.172,60.281c-9.775,26.068-11.133,54.851-11.133,54.851H662.684z"/>
						<path style="fill:#317C6D;" d="M664.323,369.495c0,0-5.271-57.656,12.882-93.833c0,0-13.546,41.604-8.647,93.833H664.323z"/>
						<path style="fill:#4FB29F;" d="M668.581,374.51c0,0-1.229-40.895,14.198-57.513c15.427-16.618,32.555-18.583,32.555-18.583
							s-2.526,23.587-12.776,35.942c-10.25,12.355-23.728,25.564-24.57,37.492L668.581,374.51z"/>
						<path style="fill:#4FB29F;" d="M664.3,374.51c0,0,1.229-40.895-14.198-57.513c-15.427-16.618-32.555-18.583-32.555-18.583
							s2.526,23.587,12.776,35.942c10.249,12.355,23.728,25.564,24.57,37.492L664.3,374.51z"/>
						<path style="fill:#67CEBB;" d="M669.595,376.374c0.842-1.685-0.632-34.736,25.061-58.119c0,0-18.743,22.8-21.27,56.254
							L669.595,376.374z"/>
						<path style="fill:#67CEBB;" d="M663.081,376.374c-0.842-1.685,0.632-34.736-25.061-58.119c0,0,18.743,22.8,21.27,56.254
							L663.081,376.374z"/>
					</g>
					<path style="fill:#ADAAD6;" d="M700.834,368.368l-1.76,9.694l-2.208,12.214l-5.2,28.718
						c-1.36,7.512-7.901,12.975-15.536,12.975h-18.549c-7.635,0-14.175-5.463-15.536-12.975l-5.2-28.718l-2.208-12.214l-1.76-9.694
						H700.834z"/>
					<polygon style="fill:#716DAA;" points="699.074,378.063 696.867,390.277 636.847,390.277 634.639,378.063 					"/>
				</g>
				<g>
					<g>
						<path style="fill:#3B9382;" d="M87.316,371.848c0,0,11.405-28.783,5.431-65.169c-5.974-36.386-27.697-49.963-27.697-49.963
							s-7.603,34.214,2.172,60.281c9.775,26.068,11.133,54.851,11.133,54.851H87.316z"/>
						<path style="fill:#317C6D;" d="M85.677,369.495c0,0,5.271-57.656-12.882-93.833c0,0,13.546,41.604,8.647,93.833H85.677z"/>
						<path style="fill:#4FB29F;" d="M81.419,374.51c0,0,1.23-40.895-14.197-57.513c-15.427-16.618-32.556-18.583-32.556-18.583
							s2.526,23.587,12.776,35.942c10.249,12.355,23.728,25.564,24.57,37.492L81.419,374.51z"/>
						<path style="fill:#4FB29F;" d="M85.7,374.51c0,0-1.229-40.895,14.198-57.513c15.427-16.618,32.556-18.583,32.556-18.583
							s-2.526,23.587-12.776,35.942c-10.249,12.355-23.728,25.564-24.57,37.492L85.7,374.51z"/>
						<path style="fill:#67CEBB;" d="M80.405,376.374c-0.842-1.685,0.632-34.736-25.061-58.119c0,0,18.743,22.8,21.27,56.254
							L80.405,376.374z"/>
						<path style="fill:#67CEBB;" d="M86.919,376.374c0.842-1.685-0.632-34.736,25.061-58.119c0,0-18.743,22.8-21.27,56.254
							L86.919,376.374z"/>
					</g>
					<path style="fill:#ADAAD6;" d="M49.166,368.368l1.76,9.694l2.208,12.214l5.2,28.718c1.36,7.512,7.901,12.975,15.536,12.975
						h18.549c7.634,0,14.175-5.463,15.536-12.975l5.2-28.718l2.207-12.214l1.76-9.694H49.166z"/>
					<polygon style="fill:#716DAA;" points="50.926,378.063 53.133,390.277 113.153,390.277 115.361,378.063 					"/>
				</g>
			</g>
			<g>
				<g>
					<rect x="368.757" y="332.711" style="fill:#96A3DA;" width="5.253" height="97.553"/>
					<g>
						<g>
							<polygon style="fill:#149FBE;" points="298.879,372.278 290.216,430.263 284.382,430.263 293.221,372.278 							"/>
							<polygon style="fill:#149FBE;" points="294.512,368.831 288.783,368.831 286.246,351.858 285.308,345.585 290.966,345.585 
								291.923,351.858 							"/>
							<polygon style="fill:#149FBE;" points="320.893,368.831 315.169,368.831 312.632,351.858 311.695,345.585 317.352,345.585 
								318.31,351.858 							"/>
							<polygon style="fill:#008B9A;" points="315.85,372.278 307.187,430.263 301.353,430.263 310.193,372.278 							"/>
							<polygon style="fill:#008B9A;" points="352.621,372.278 361.283,430.263 367.117,430.263 358.278,372.278 							"/>
							<polygon style="fill:#149FBE;" points="328.401,372.278 337.064,430.263 342.898,430.263 334.058,372.278 							"/>
							<polygon style="fill:#008B9A;" points="290.966,345.585 291.923,351.858 286.246,351.858 285.308,345.585 							"/>
							<polygon style="fill:#FDC25E;" points="318.31,351.858 312.632,351.858 311.695,345.585 317.352,345.585 							"/>
							<polygon style="fill:#008B9A;" points="312.286,309.304 272.667,309.304 279.072,346.419 318.691,346.419 							"/>
							<polygon style="fill:#149FBE;" points="316.688,309.304 277.069,309.304 283.474,346.419 323.094,346.419 							"/>
							<path style="fill:#149FBE;" d="M361.813,374.577h-77.077c-2.343,0-4.243-1.9-4.243-4.243l0,0c0-2.343,1.9-4.243,4.243-4.243
								h77.077c2.343,0,4.243,1.9,4.243,4.243l0,0C366.056,372.677,364.157,374.577,361.813,374.577z"/>
						</g>
						<g>
							<g>
								<g>
									<g>
										<g>
											<path style="fill:#ADADAD;" d="M418.199,430.263h-31.09c-0.056-0.619-0.091-1.204-0.097-1.76
												c-0.132-5.698,1.851-7.806,1.851-7.806l11.82-1.482c10.129,0.974,14.811,6.428,16.592,9.287
												C417.935,429.56,418.199,430.263,418.199,430.263z"/>
										</g>
										<g>
											<path style="fill:#CACAC8;" d="M418.199,430.263h-31.09c-0.056-0.619-0.091-1.204-0.097-1.76h30.262
												C417.935,429.56,418.199,430.263,418.199,430.263z"/>
										</g>
										<g>
											<path style="fill:#CACAC8;" d="M402.169,422.527c-0.153,0-0.307-0.05-0.435-0.153c-0.299-0.24-0.348-0.675-0.109-0.974
												c0.06-0.076,1.507-1.858,4.404-2.521c0.374-0.088,0.747,0.148,0.833,0.522c0.086,0.375-0.148,0.748-0.522,0.833
												c-2.4,0.55-3.616,2.02-3.628,2.035C402.573,422.438,402.372,422.527,402.169,422.527z"/>
										</g>
										<g>
											<path style="fill:#CACAC8;" d="M404.717,423.98c-0.16,0-0.322-0.055-0.453-0.168c-0.291-0.25-0.325-0.686-0.077-0.977
												c0.062-0.073,1.569-1.806,4.486-2.373c0.378-0.073,0.742,0.173,0.815,0.55c0.073,0.377-0.173,0.743-0.55,0.816
												c-2.417,0.47-3.682,1.898-3.694,1.913C405.106,423.898,404.912,423.98,404.717,423.98z"/>
										</g>
										<g>
											<path style="fill:#CACAC8;" d="M407.091,425.313c-0.166,0-0.332-0.059-0.465-0.178c-0.285-0.256-0.309-0.693-0.054-0.979
												c0.064-0.072,1.609-1.77,4.538-2.271c0.385-0.063,0.738,0.19,0.803,0.569c0.065,0.379-0.189,0.738-0.568,0.803
												c-2.427,0.415-3.724,1.814-3.737,1.829C407.47,425.236,407.281,425.313,407.091,425.313z"/>
										</g>
									</g>
									<path style="fill:#22355D;" d="M346.897,329.615c0,0,29.816,4.784,46.888,13.601c0,0,7.129,27.389,9.661,75.79
										l-16.04,3.658l-12.235-55.154l-31.1-9.849l-9.647-5.065L346.897,329.615z"/>
								</g>
								<g>
									<g>
										<g>
											<path style="fill:#ADADAD;" d="M366.711,435.497l-28.493-12.438c0.197-0.59,0.399-1.139,0.615-1.652
												c2.158-5.275,4.819-6.413,4.819-6.413l11.425,3.371c8.894,4.945,11.003,11.816,11.491,15.149
												C366.75,434.747,366.711,435.497,366.711,435.497z"/>
										</g>
										<g>
											<path style="fill:#CACAC8;" d="M366.711,435.497l-28.493-12.438c0.197-0.59,0.399-1.139,0.615-1.652l27.735,12.107
												C366.75,434.747,366.711,435.497,366.711,435.497z"/>
										</g>
										<g>
											<path style="fill:#CACAC8;" d="M355.115,421.993c-0.14-0.061-0.261-0.169-0.337-0.314
												c-0.178-0.34-0.049-0.758,0.289-0.937c0.086-0.045,2.125-1.099,5.045-0.549c0.378,0.069,0.626,0.434,0.555,0.812
												c-0.072,0.378-0.435,0.626-0.812,0.555c-2.419-0.456-4.123,0.405-4.14,0.413
												C355.52,422.074,355.301,422.075,355.115,421.993z"/>
										</g>
										<g>
											<path style="fill:#CACAC8;" d="M356.868,424.345c-0.147-0.064-0.273-0.18-0.347-0.335
												c-0.167-0.345-0.024-0.759,0.321-0.926c0.087-0.042,2.16-1.028,5.061-0.38c0.376,0.085,0.611,0.455,0.527,0.83
												c-0.084,0.375-0.456,0.611-0.831,0.527c-2.403-0.536-4.134,0.267-4.151,0.275
												C357.258,424.426,357.047,424.422,356.868,424.345z"/>
										</g>
										<g>
											<path style="fill:#CACAC8;" d="M358.51,426.516c-0.152-0.066-0.281-0.187-0.355-0.349
												c-0.158-0.349-0.006-0.759,0.342-0.919c0.088-0.04,2.183-0.979,5.067-0.266c0.378,0.096,0.601,0.47,0.509,0.842
												c-0.092,0.373-0.469,0.601-0.842,0.509c-2.39-0.591-4.138,0.173-4.156,0.181
												C358.889,426.597,358.685,426.592,358.51,426.516z"/>
										</g>
									</g>
									<path style="fill:#2E4A79;" d="M347.073,328.583l-2.172,12.757c0,0,29.373,3.94,35.001,11.256
										c5.628,7.316-20.008,68.098-20.008,68.098l-19.387-6.003l14.257-47.462c0,0-12.616-0.516-21.808-0.141
										c-9.192,0.375-26.465,0.328-30.093-9.802c-3.628-10.13,3.125-29.828,3.125-29.828L347.073,328.583z"/>
								</g>
							</g>
							<g>
								<g>
									<path style="fill:#DF776C;" d="M370.539,322.614l-1.704,6.129h-7.597l-4.104-18.199l-1.051-4.661l11.91-4.362l0.751,2.351
										l1.53,4.779C371.722,313.181,371.812,318.036,370.539,322.614z"/>
									<polygon style="fill:#DF776C;" points="368.744,303.872 357.133,310.544 356.083,305.883 367.993,301.521 									"/>
									<path style="fill:#ADADAD;" d="M355.492,272.212c0,0,7.152,3.684,10.06,13.66c2.908,9.976,5.253,15.932,5.253,15.932
										l-17.252,5.112c0,0,1.587-31.423,1.587-32.267C355.14,273.805,355.492,272.212,355.492,272.212z"/>
								</g>
								<g>
									<path style="fill:#CACAC8;" d="M358.114,294.66l-9.343,37.113h-45.908c0,0,8.912-47.386,13.601-52.544
										c2.762-3.04,7.437-5.541,12.494-7.206c3.534-1.162,7.256-1.906,10.63-2.14c1.621-0.113,3.221-0.085,4.745,0.028
										c6.198,0.454,11.159,2.345,11.159,2.345C363.52,275.501,358.114,294.66,358.114,294.66z"/>
									<path style="fill:#DEDEDE;" d="M352.925,280.839c-0.132,3.75-3.21,6.843-11.034,3.8
										c-7.961-3.096-11.42-7.926-12.932-12.656c3.534-1.141,7.256-1.871,10.63-2.101c1.621-0.111,3.221-0.083,4.745,0.028
										c2.929,0.8,5.426,2.045,6.553,3.708C350.886,273.617,353.05,277.089,352.925,280.839z"/>
								</g>
								<g>
									<path style="fill:#DF776C;" d="M355.52,252.503c0.656,2.032,3.481,2.939,6.311,2.026c2.829-0.913,4.591-3.301,3.935-5.333
										c-0.656-2.032-3.482-2.939-6.311-2.026C356.626,248.083,354.864,250.471,355.52,252.503z"/>
									<path style="fill:#282D33;" d="M361.222,237.505c0,0,2.025,8.752-0.042,13.345c-2.068,4.594-4.218-8.172-4.15-8.191
										c0.068-0.019,0.535-4.848,0.746-4.65C357.986,238.208,361.222,237.505,361.222,237.505z"/>
									<path style="fill:#EA8F7A;" d="M351.227,266.528c-0.438,2.692-0.473,4.953-0.362,6.678c0.16,2.456-0.132,7.117-0.132,7.117
										s-0.661,3.437-4.598,3.235c-5.899-0.299-12.133-6.992-14.755-10.15c0.035-0.063,0.077-0.132,0.111-0.202
										c1.162-2.115,2.491-6.038,2.936-8.355c0.786-4.049,0.73-7.541,0.73-7.541S352.292,260.01,351.227,266.528z"/>
									<path style="fill:#DF776C;" d="M350.865,273.208c-9.248-0.555-14.324-5.576-16.441-8.353
										c0.788-4.048,0.731-7.547,0.731-7.547s17.139,2.7,16.074,9.218C350.789,269.222,350.755,271.483,350.865,273.208z"/>
									<path style="fill:#EA8F7A;" d="M361.225,248.754c0,0.25,0,0.494-0.014,0.744v0.007c0,0.285-0.007,0.563-0.014,0.849
										c-0.334,9.893-3.625,18.338-12.202,17.907c-13.802-0.682-19.221-9.086-18.881-18.978c0.118-3.464,1.461-6.678,3.52-9.371
										c0.529-0.696,1.113-1.364,1.746-1.99c3.812-3.826,9.12-6.178,13.914-6.018c2.449,0.083,4.494,0.821,6.164,2.059
										c1.405,1.037,2.539,2.421,3.416,4.084c1.238,2.324,1.976,5.169,2.233,8.306c0.056,0.737,0.097,1.496,0.104,2.261
										C361.211,248.656,361.225,248.712,361.225,248.754z"/>
									<path style="fill:none;stroke:#BE494F;stroke-linecap:round;stroke-miterlimit:10;" d="M352.922,252.874
										c0,0,1.049,2.224,0.442,4.751"/>
									<path style="fill:none;stroke:#282D33;stroke-linecap:round;stroke-miterlimit:10;" d="M349.178,246.737
										c0,0-2.166-1.775-4.754,0.416"/>
									<path style="fill:none;stroke:#282D33;stroke-linecap:round;stroke-miterlimit:10;" d="M360.654,246.737
										c0,0-2.166-1.775-4.754,0.416"/>
									<path style="fill:#282D33;" d="M360.249,250.261c0,0.668-0.387,1.209-0.863,1.209c-0.477,0-0.863-0.542-0.863-1.209
										c0-0.668,0.387-1.21,0.863-1.21C359.863,249.051,360.249,249.593,360.249,250.261z"/>
									<path style="fill:#282D33;" d="M348.528,250.089c0,0.668-0.387,1.21-0.863,1.21c-0.477,0-0.863-0.542-0.863-1.21
										c0-0.668,0.387-1.209,0.863-1.209C348.141,248.88,348.528,249.421,348.528,250.089z"/>
									<path style="fill:none;stroke:#BE494F;stroke-linecap:round;stroke-miterlimit:10;" d="M344.901,258.469
										c0,0,2.134,3.142,6.824,3.236"/>
									<path style="fill:#DF776C;" d="M361.107,246.354c-0.376-1.468-1.537-3.318-1.537-3.318
										c-9.419,2.908-21.422,2.067-21.422,2.067c-1.016,3.381-3.886,6.198-3.886,6.198l-2.421-2.247l4.313-8.64
										c0,0,14.637-3.659,16.133-3.659c1.203,0,4.084,0.063,6.588,1.294C360.112,240.371,360.85,243.216,361.107,246.354z"/>
									<path style="fill:#282D33;" d="M361.535,239.112c-0.271,0.292-0.563,0.57-0.89,0.835
										c-5.294,4.355-24.745,3.374-24.745,3.374c-0.098,9.552-4.292,10.226-4.292,10.226s-1.266,0.703-4.223,0
										c-2.957-0.71-6.052-12.668-5.204-15.694c0.842-3.026,5.489-2.88,4.501-5.955c-0.988-3.068,2.532-5.371,6.609-5.085
										c2.01,0.139,3.103-0.132,4.091-0.758c0.007,0.007,0.014,0,0.021-0.007c0.132-0.07,0.264-0.16,0.39-0.264
										c0.021-0.014,0.035-0.028,0.056-0.042c0.091-0.07,0.188-0.146,0.278-0.216c0.772-0.619,1.607-1.433,2.901-2.428
										c3.367-2.581,7.604,1.044,11.896,0.619c4.292-0.424,5.412-1.691,8.299,1.405
										C363.935,228.03,365.709,234.701,361.535,239.112z"/>
									<path style="fill:#EA8F7A;" d="M334.68,257.232c-0.656,2.032-3.481,2.94-6.311,2.026c-2.829-0.913-4.591-3.301-3.935-5.333
										c0.656-2.032,3.481-2.939,6.311-2.026C333.574,252.812,335.336,255.2,334.68,257.232z"/>
									<path style="fill:#505960;" d="M361.535,239.112c2.957-7.68-1.767-14.484-5.329-13.635
										c-3.569,0.842-7.694,0.306-10.546-1.106c-2.658-1.308-5.879-0.056-7.534,1.155c0.772-0.619,1.607-1.433,2.901-2.428
										c3.367-2.581,7.604,1.044,11.896,0.619c4.292-0.424,5.412-1.691,8.299,1.405
										C363.935,228.03,365.709,234.701,361.535,239.112z"/>
								</g>
								<g>
									<polygon style="fill:#DF776C;" points="371.163,313.791 339.706,319.643 339.706,328.746 363.086,328.743 									"/>
									<path style="fill:#DF776C;" d="M326.469,324.746c0,0-2.03,3.071-3.199,4.027c-1.169,0.957-1.741-0.793-1.511-1.774
										c0,0-0.698,1.327-1.719,1.428c-1.021,0.101-1.064-2.044-0.812-2.922c0,0-1.228,1.723-2.194,1.74
										c-0.966,0.018,0.046-4.174,1.658-6.298c1.613-2.124,3.349-2.586,3.349-2.586s-2.208-0.088-3.616,1.456
										c-1.408,1.544-1.893,2.684-3.031,2.737c-1.138,0.053-0.025-2.235,0.283-3.009c0.309-0.774,1.797-2.98,6.028-4.239
										c4.231-1.258,13.788,4.761,13.788,4.761l7.528-0.759l-1.813,9.434h-8.064C333.146,328.743,329.253,327.48,326.469,324.746z
										"/>
								</g>
								<g>
									<g>
										<path style="fill:#EA8F7A;" d="M370.525,320.124l-1.266,8.619h-38.652c-3.228,0-6.08-2.087-7.061-5.162l-1.691-5.329
											l-2.922-9.204l12.842-5.224l2.922,7.124l1.586,3.854L370.525,320.124z"/>
										<path style="fill:#DF776C;" d="M334.698,310.947c-2.852,1.593-8.967,5.086-12.842,7.305l-2.922-9.204l12.842-5.224
											L334.698,310.947z"/>
										<path style="fill:#ADADAD;" d="M315.285,313.763c0.071,0.464,21.293-5.065,21.293-5.065s-4.971-18.854-8.911-26.17
											c-3.94-7.316-9.902-5.222-10.84-4.096C315.889,279.557,310.689,283.654,315.285,313.763z"/>
									</g>
									<g>
										<path style="fill:#EA8F7A;" d="M378.731,324.746c0,0,2.03,3.071,3.199,4.027c1.169,0.957,1.742-0.793,1.511-1.774
											c0,0,0.698,1.327,1.719,1.428c1.02,0.101,1.063-2.044,0.812-2.922c0,0,1.228,1.723,2.194,1.74
											c0.966,0.018-0.046-4.174-1.658-6.298c-1.613-2.124-3.349-2.586-3.349-2.586s2.208-0.088,3.616,1.456
											c1.408,1.544,1.893,2.684,3.031,2.737c1.138,0.053,0.025-2.235-0.283-3.009c-0.309-0.774-1.797-2.98-6.028-4.239
											c-4.231-1.258-13.788,4.761-13.788,4.761l-7.528-0.759l1.813,9.434h8.064C372.055,328.743,375.947,327.48,378.731,324.746
											z"/>
										<path style="fill:none;stroke:#BE494F;stroke-linecap:round;stroke-miterlimit:10;" d="M382.975,325.934
											c0,0-0.879-1.935-2.744-3.377"/>
										<path style="fill:none;stroke:#BE494F;stroke-linecap:round;stroke-miterlimit:10;" d="M385.765,324.691
											c0,0-1.285-2.845-3.149-4.287"/>
									</g>
								</g>
							</g>
						</g>
					</g>
					<g>
						<g>
							<polygon style="fill:#149FBE;" points="183.089,372.278 174.427,430.263 168.593,430.263 177.432,372.278 							"/>
							<polygon style="fill:#149FBE;" points="178.723,368.831 172.994,368.831 170.457,351.858 169.519,345.585 175.177,345.585 
								176.134,351.858 							"/>
							<polygon style="fill:#149FBE;" points="205.104,368.831 199.38,368.831 196.843,351.858 195.906,345.585 201.563,345.585 
								202.52,351.858 							"/>
							<polygon style="fill:#008B9A;" points="200.061,372.278 191.398,430.263 185.564,430.263 194.404,372.278 							"/>
							<polygon style="fill:#008B9A;" points="236.832,372.278 245.494,430.263 251.328,430.263 242.489,372.278 							"/>
							<polygon style="fill:#149FBE;" points="212.612,372.278 221.275,430.263 227.109,430.263 218.269,372.278 							"/>
							<polygon style="fill:#008B9A;" points="175.177,345.585 176.134,351.858 170.457,351.858 169.519,345.585 							"/>
							<polygon style="fill:#FDC25E;" points="202.52,351.858 196.843,351.858 195.906,345.585 201.563,345.585 							"/>
							<polygon style="fill:#008B9A;" points="196.497,309.304 156.878,309.304 163.283,346.419 202.902,346.419 							"/>
							<polygon style="fill:#149FBE;" points="200.899,309.304 161.28,309.304 167.685,346.419 207.305,346.419 							"/>
							<path style="fill:#149FBE;" d="M246.024,374.577h-77.077c-2.343,0-4.243-1.9-4.243-4.243l0,0c0-2.343,1.9-4.243,4.243-4.243
								h77.077c2.343,0,4.243,1.9,4.243,4.243l0,0C250.267,372.677,248.368,374.577,246.024,374.577z"/>
						</g>
						<g>
							<g>
								<path style="fill:#58110D;" d="M207.498,228.262l-2.697-1.301c0,0-8.066-0.346-9.938,9.456
									c-1.748,9.157-1.426,19.696,0.444,26.836c0.93,3.55,4.108,6.043,7.778,6.043h24.775c1.663,0,1.775-2.052,1.551-3.699
									c-0.701-5.146,4.138-14.383-0.409-27.799c-0.348-1.026-0.662-0.857-0.662-0.857L207.498,228.262z"/>
								<path style="fill:#F4AC96;" d="M218.045,284.033c4.765-2.6,5.494-8.666,5.494-8.666l-1.014-3.036
									c0,0-0.107-0.157-0.279-0.471c-0.672-1.257-2.322-5.008-1.743-10.802c0.722-7.223-11.702-2.308-11.702-2.308
									s-0.514,3.215-1.143,6.551c-0.479,2.536-1.022,5.144-1.457,6.451C205.186,274.788,213.28,286.633,218.045,284.033z"/>
								<path style="fill:#DF776C;" d="M207.658,265.301c2.165,2.7,6.715,6.744,14.588,6.558c-0.672-1.257-2.322-5.008-1.743-10.802
									c0.722-7.223-11.702-2.308-11.702-2.308S208.287,261.965,207.658,265.301z"/>
								<path style="fill:#DF776C;" d="M233.711,250.035c0.188,1.902-1.768,3.651-4.369,3.908c-2.601,0.257-4.861-1.077-5.049-2.979
									c-0.188-1.902,1.768-3.651,4.369-3.908C231.263,246.799,233.524,248.133,233.711,250.035z"/>
								<path style="fill:#F4AC96;" d="M219.238,267.001c3.936-0.286,8.659-5.658,10.123-13.459c0.243-1.286,0.393-2.543,0.45-3.751
									c0,0,0-0.007,0.007-0.007c0.1-2.043-0.043-3.943-0.407-5.601c-0.714-3.3-2.279-5.615-4.429-6.094
									c-10.159-2.251-16.331-0.993-19.989,2.007c-2.572,2.108-3.901,5.072-4.508,8.294
									C199.021,256.193,209.101,267.744,219.238,267.001z"/>
								<path style="fill:#DF776C;" d="M203.178,249.791c0.886-5.008,8.223-6.43,15.303-6.572c7.08-0.15,8.809-1.157,8.809-1.157
									c0.822,0.471,1.536,1.279,2.122,2.122c-0.714-3.3-2.279-5.615-4.429-6.094c-10.159-2.251-16.331-0.993-19.989,2.007
									C201.936,245.827,202.586,253.171,203.178,249.791z"/>
								<path style="fill:#58110D;" d="M202.225,254.759l0.074,0.037C202.299,254.796,202.234,254.926,202.225,254.759z"/>
								<path style="fill:#58110D;" d="M225.919,240.5c-0.019,0.009-0.028,0.009-0.028,0.009c-0.583,0.157-1.222,0.259-1.926,0.324
									c-11.167,0.963-19.065,1.444-20.611,8.185c-0.972,4.278-1.139,5.454-1.13,5.741l-4.648-2.268c0,0-3.083-5.268-1.731-16.074
									c1.343-10.805,8.954-9.454,8.954-9.454l0.009-0.009c0.278-0.157,6.009-3.315,15.602-1.63
									C229.604,226.945,234.493,238.278,225.919,240.5z"/>
								<path style="fill:#F4AC96;" d="M195.468,253.509c-0.188,1.902,1.769,3.651,4.369,3.908c2.601,0.257,4.861-1.077,5.049-2.979
									c0.188-1.902-1.769-3.651-4.369-3.908C197.916,250.274,195.656,251.608,195.468,253.509z"/>
								<path style="fill:none;stroke:#BE494F;stroke-linecap:round;stroke-miterlimit:10;" d="M220.337,252.757
									c0,0,1.049,2.224,0.442,4.751"/>
								<path style="fill:none;stroke:#58110D;stroke-linecap:round;stroke-linejoin:round;stroke-miterlimit:10;" d="
									M223.621,247.089c0,0,2.383-1.893,4.766,0.238"/>
								<path style="fill:none;stroke:#58110D;stroke-linecap:round;stroke-linejoin:round;stroke-miterlimit:10;" d="
									M211.375,247.089c0,0,2.383-1.893,4.766,0.238"/>
								<path style="fill:#282D33;" d="M215.514,250.733c0,0.74-0.296,1.34-0.661,1.34c-0.365,0-0.661-0.6-0.661-1.34
									c0-0.74,0.296-1.339,0.661-1.339C215.218,249.394,215.514,249.993,215.514,250.733z"/>
								<path style="fill:#282D33;" d="M227.216,250.733c0,0.74-0.296,1.34-0.661,1.34c-0.365,0-0.661-0.6-0.661-1.34
									c0-0.74,0.296-1.339,0.661-1.339C226.921,249.394,227.216,249.993,227.216,250.733z"/>
								<path style="fill:none;stroke:#BE494F;stroke-linecap:round;stroke-miterlimit:10;" d="M215.219,260.19
									c1.244,0.655,3.245,1.311,5.861,0.848"/>
								<path style="fill:#842020;" d="M225.919,240.5c0.352-0.167,4.518-2.222,0.083-9.287c-4.63-7.361-21.204-4.25-21.204-4.25
									l0.009-0.009c0.278-0.157,6.009-3.315,15.602-1.63C229.604,226.945,234.493,238.278,225.919,240.5z"/>
							</g>
							<g>
								<path style="fill:#DF776C;" d="M243.245,355.548l10.076,1.577l7.697,62.696l10.654-0.865l-1.6-72.92
									c-0.106-3.097-2.222-5.761-5.215-6.564l-15.224-4.087L243.245,355.548z"/>
								<path style="fill:#DF776C;" d="M271.396,416.692l0.308,2.524c0,0,16.34,2.804,16.89,11.048h-19.573l-2.182-1.455
									l-0.727,1.455h-6.789c0,0-0.122-5.792,1.878-8.762l-0.273-2.422L271.396,416.692z"/>
								<path style="fill:#264066;" d="M288.594,430.267H269.02l-2.185-1.463l-0.731,1.463h-6.787c0,0-0.093-3.648,0.898-6.63
									c1.157,0.62,4.981,2.232,12.454,1.769c6.333-0.38,8.565-1.898,9.333-2.806C285.391,424.341,288.363,426.823,288.594,430.267
									z"/>
							</g>
							<g>
								<path style="fill:#F4AC96;" d="M236.852,367.318h2.299l3.502,52.717l10.669-0.819l5.997-63.241
									c0.091-3.343-2.236-6.268-5.514-6.931l-12.967-2.624L236.852,367.318z"/>
								<path style="fill:#F4AC96;" d="M270.215,430.267h-19.574l-2.185-1.463l-0.732,1.463h-6.787c0,0-0.093-3.648,0.898-6.63
									c0.25-0.741,0.565-1.454,0.963-2.046l-0.204-2.481l10.981-2.546l-0.259,2.648c0,0,5.565,0.954,10.305,3.389
									C267.011,424.341,269.983,426.823,270.215,430.267z"/>
								<path style="fill:#2E4A79;" d="M270.215,430.267h-19.574l-2.185-1.463l-0.732,1.463h-6.787c0,0-0.093-3.648,0.898-6.63
									c1.157,0.62,4.981,2.232,12.454,1.769c6.333-0.38,8.565-1.898,9.333-2.806C267.011,424.341,269.983,426.823,270.215,430.267
									z"/>
							</g>
							<g>
								<path style="fill:#F4AC96;" d="M230.578,277.352c0,0,3.448,2.299,6.034,10.344c2.586,8.046,6.034,15.229,7.327,15.947
									c1.293,0.718,17.034-15.687,17.034-15.687l3.873,6.719c0,0-7.402,13.422-14.011,20.318
									c-6.609,6.896-8.62,6.321-10.488,5.603c-1.868-0.718-10.627-9.559-10.627-9.559L230.578,277.352z"/>
								<path style="fill:#F4AC96;" d="M261.198,288.84c-0.464-0.743-0.61-1.637-0.405-2.489c0.574-2.387,1.84-7.376,3-10.046
									c1.561-3.592,2.426-3.741,2.843-3.698c0.417,0.043,1.326,0.716-1.523,7.605c0,0,2.068-1.993,3.063,0.326
									c0,0,1.94-0.433,2.427,1.839c0,0,2.288,1.411,1.742,4.169c-0.545,2.758-2.261,1.235-2.261,1.235s0.871,3.169-1.903,5.067
									c-2.774,1.897-3.335,1.828-3.335,1.828L261.198,288.84z"/>
								<path style="fill:none;stroke:#BE494F;stroke-width:0.5;stroke-linecap:round;stroke-miterlimit:10;" d="M261.709,286.786
									c0,0,3.183-4.353,4.301-4.999c1.118-0.645,1.335,0.325,0.521,2.068c-0.814,1.744-0.866,2.397-0.866,2.397
									s1.503,3.043-0.721,5.291"/>
								<path style="fill:none;stroke:#BE494F;stroke-width:0.5;stroke-linecap:round;stroke-miterlimit:10;" d="M268.507,281.105
									c0,0,0.099,3.899-1.058,5.125c-1.157,1.227-1.584-0.298-1.543-0.868"/>
								<path style="fill:none;stroke:#BE494F;stroke-width:0.5;stroke-linecap:round;stroke-miterlimit:10;" d="M270.564,282.649
									c0,0-0.039,3.293-1.127,4.113c-1.088,0.82-1.827-0.313-1.73-0.886"/>
							</g>
							<g>
								<g>
									<g>
										<path style="fill:#F2819F;" d="M235.088,296.662c-0.717-10.485-3.025-16.598-3.789-18.374
											c-0.066-0.246-0.149-0.437-0.253-0.559c-2.095-2.456-8.449-5.283-8.449-5.283c-0.849,4.082-4.641,8.055-4.641,8.055
											c-5.491-1.373-11.77-9.789-11.77-9.789s-11.059,2.637-13.949,5.562c-2.89,2.925-3.587,48.534,6.159,52.002
											c9.746,3.468,32.048,0.582,32.048,0.582c0-5.057-1.157-11.171-1.047-16.91c0.003-0.161,0.008-0.322,0.012-0.483
											C233.555,309.774,235.809,307.212,235.088,296.662z"/>
										<path style="fill:#FFD5E3;" d="M217.956,280.501c0,0-3.179,3.338-8.958,4.017c-5.779,0.679-5.298-13.168-4.238-13.806
											c1.06-0.638,1.893-0.189,1.893-0.189S210.515,276.022,217.956,280.501z"/>
										<path style="fill:#FFD5E3;" d="M217.956,280.501c0,0,3.535,2.046,7.272,2.625c3.737,0.579-0.483-9.846-1.168-10.391
											c-0.685-0.545-1.507-0.412-1.507-0.412S221.615,275.93,217.956,280.501z"/>
									</g>
									<path style="fill:#F2819F;" d="M192.166,314.917c0,0-0.915,10.874-3.162,16.305c-2.247,5.431-6.974,30.221,6.813,34.118
										c13.786,3.897,43.649,2.458,43.649,2.458s2.904-23.905,21.093-28.635c1.038-0.27,1.032-1.747-0.006-2.019l-29.865-7.832
										l-3.817-12.366L192.166,314.917z"/>
								</g>
								<path style="fill:#FFD5E3;" d="M219.852,284.755c0,0.617-0.5,1.117-1.117,1.117c-0.617,0-1.117-0.5-1.117-1.117
									c0-0.617,0.5-1.116,1.117-1.116C219.352,283.639,219.852,284.139,219.852,284.755z"/>
								<path style="fill:#FFD5E3;" d="M219.852,289.218c0,0.617-0.5,1.116-1.117,1.116c-0.617,0-1.117-0.5-1.117-1.116
									c0-0.617,0.5-1.117,1.117-1.117C219.352,288.102,219.852,288.602,219.852,289.218z"/>
							</g>
							<g>
								<path style="fill:#F4AC96;" d="M211.558,328.74v0.009c-0.167,0-0.38-0.009-0.611-0.009l-6.37-0.472
									c-4.222-0.37-8.87-0.852-10.009-1.019c-1.963-0.278-14.194-1.769-15.037-4.204c-0.833-2.426,0.38-13.25,3.083-25.111
									c2.713-11.861,6.63-19.231,8.315-21.102c1.676-1.87,5.88-2.056,8.491,4.389c2.62,6.445-1.187,16.861-3.427,21.435
									c-2.241,4.574-4.494,12.953-4.494,12.953l16.756,5.483l0.556,0.176L211.558,328.74z"/>
								<path style="fill:#F4AC96;" d="M229.263,323.136c-1.029-0.051-1.475-1.088-2.757-2.496c-1.281-1.4-3.288-1.324-3.288-1.324
									s1.577,0.422,3.044,2.352c1.467,1.939,2.395,5.759,1.509,5.742c-0.877-0.017-1.998-1.585-1.998-1.585
									c0.236,0.792,0.194,2.748-0.733,2.656c-0.928-0.093-1.568-1.298-1.568-1.298c0.211,0.894-0.312,2.487-1.374,1.619
									c-1.062-0.877-2.917-3.668-2.917-3.668c-2.529,2.487-6.079,3.634-6.079,3.634h-1.56l-5.801-0.43l-0.287-6.821l5.455-0.641
									l0.059-0.008c0,0,8.701-5.48,12.554-4.334c3.853,1.147,5.202,3.153,5.489,3.862
									C229.288,321.104,230.3,323.187,229.263,323.136z"/>
								<path style="fill:none;stroke:#BE494F;stroke-width:0.5;stroke-linecap:round;stroke-miterlimit:10;" d="M223.136,326.099
									c0,0-0.879-1.935-2.744-3.377"/>
								<path style="fill:none;stroke:#BE494F;stroke-width:0.5;stroke-linecap:round;stroke-miterlimit:10;" d="M225.927,324.856
									c0,0-1.285-2.845-3.149-4.287"/>
							</g>
						</g>
					</g>
					<g>
						<g>
							<rect x="428.301" y="332.711" style="fill:#AFB6E0;" width="5.253" height="97.553"/>
							<rect x="143.298" y="332.711" style="fill:#96A3DA;" width="5.253" height="97.553"/>
							<rect x="217.177" y="328.16" style="fill:#AFB6E0;" width="235.882" height="7.225"/>
							<rect x="136.698" y="328.16" style="fill:#96A3DA;" width="80.48" height="7.225"/>
							<rect x="202.842" y="332.711" style="fill:#96A3DA;" width="5.253" height="97.553"/>
						</g>
						<g>
							<rect x="235.769" y="325.409" style="fill:#716DAA;" width="61.705" height="2.901"/>
							<rect x="255.986" y="325.409" style="fill:#7E7AA5;" width="41.488" height="2.901"/>
							<polygon style="fill:#ADAAD6;" points="305.51,300.343 299.793,324.855 297.596,324.855 255.986,325.407 262.13,298.51 
								303.615,298.51 							"/>
							<polygon style="fill:#9893BC;" points="305.512,300.348 264.024,300.348 258.301,325.409 299.789,325.409 							"/>
							<path style="fill:#ADAAD6;" d="M286.75,312.879c0,1.861-1.509,3.37-3.37,3.37c-1.861,0-3.37-1.509-3.37-3.37
								c0-1.861,1.509-3.37,3.37-3.37C285.241,309.509,286.75,311.018,286.75,312.879z"/>
						</g>
					</g>
				</g>
				<g>
					<g>
						<path style="fill:#F2819F;" d="M291.952,199.26v10.152c0,5.706-4.634,10.34-10.34,10.34h-20.357
							c-5.644,3.28-14.974,8.736-15.557,9.32c-0.521,0.521,1.989-4.998,3.947-9.486c-4.821-0.885-8.466-5.102-8.466-10.173V199.26
							c0-5.706,4.623-10.34,10.34-10.34h30.093C287.319,188.919,291.952,193.553,291.952,199.26z"/>
						<rect x="264.083" y="200.904" style="fill:#FFFFFF;" width="6.121" height="6.121"/>
						<rect x="276.326" y="200.904" style="fill:#FFFFFF;" width="6.121" height="6.121"/>
						<rect x="251.84" y="200.904" style="fill:#FFFFFF;" width="6.121" height="6.121"/>
					</g>
					<g>
						<path style="fill:#CACAC8;" d="M417.298,199.26v10.152c0,5.706-4.634,10.34-10.34,10.34h-20.357
							c-5.644,3.28-14.974,8.736-15.557,9.32c-0.521,0.521,1.989-4.998,3.946-9.486c-4.821-0.885-8.466-5.102-8.466-10.173V199.26
							c0-5.706,4.623-10.34,10.34-10.34h30.093C412.665,188.919,417.298,193.553,417.298,199.26z"/>
						<g>
							<rect x="389.429" y="200.904" style="fill:#FFFFFF;" width="6.121" height="6.121"/>
							<rect x="401.672" y="200.904" style="fill:#FFFFFF;" width="6.121" height="6.121"/>
							<rect x="377.186" y="200.904" style="fill:#FFFFFF;" width="6.121" height="6.121"/>
						</g>
					</g>
				</g>
			</g>
		</g>
	</g>
</g>
</svg>
